[PACKET]
codec_type=audio
stream_index=0
pts=-128
pts_time=-0.002902
dts=-128
dts_time=-0.002902
duration=128
duration_time=0.002902
size=28
pos=3373
flags=K__
data_hash=CRC32:f592149b
TAG:encoder=Lavc61.19.100 libvorbis
TAG:title=First Stream
[SIDE_DATA]
side_data_type=Strings Metadata
[/SIDE_DATA]
[/PACKET]
[PACKET]
codec_type=audio
stream_index=0
pts=0
pts_time=0.000000
dts=0
dts_time=0.000000
duration=576
duration_time=0.013061
size=59
pos=3373
flags=K__
data_hash=CRC32:3a566e87
[/PACKET]
[PACKET]
codec_type=audio
stream_index=0
pts=576
pts_time=0.013061
dts=576
dts_time=0.013061
duration=1024
duration_time=0.023220
size=85
pos=3373
flags=K__
data_hash=CRC32:dab3c9f5
[SIDE_DATA]
side_data_type=Skip Samples
skip_samples=0
discard_padding=405
skip_reason=0
discard_reason=0
[/SIDE_DATA]
[/PACKET]
[PACKET]
codec_type=audio
stream_index=0
pts=1600
pts_time=0.036281
dts=1600
dts_time=0.036281
duration=128
duration_time=0.002902
size=28
pos=6949
flags=K__
data_hash=CRC32:f592149b
TAG:encoder=Lavc61.19.100 libvorbis
TAG:title=Second Stream
[SIDE_DATA]
side_data_type=Strings Metadata
[/SIDE_DATA]
[SIDE_DATA]
side_data_type=New Extradata
[/SIDE_DATA]
[/PACKET]
[PACKET]
codec_type=audio
stream_index=0
pts=1728
pts_time=0.039184
dts=1728
dts_time=0.039184
duration=576
duration_time=0.013061
size=59
pos=6949
flags=K__
data_hash=CRC32:3a566e87
[/PACKET]
[PACKET]
codec_type=audio
stream_index=0
pts=2304
pts_time=0.052245
dts=2304
dts_time=0.052245
duration=1024
duration_time=0.023220
size=85
pos=6949
flags=K__
data_hash=CRC32:dab3c9f5
[SIDE_DATA]
side_data_type=Skip Samples
skip_samples=0
discard_padding=405
skip_reason=0
discard_reason=0
[/SIDE_DATA]
[/PACKET]
[STREAM]
codec_name=vorbis
initial_padding=0
DISPOSITION:default=0
DISPOSITION:dub=0
DISPOSITION:original=0
DISPOSITION:comment=0
DISPOSITION:lyrics=0
DISPOSITION:karaoke=0
DISPOSITION:forced=0
DISPOSITION:hearing_impaired=0
DISPOSITION:visual_impaired=0
DISPOSITION:clean_effects=0
DISPOSITION:attached_pic=0
DISPOSITION:timed_thumbnails=0
DISPOSITION:non_diegetic=0
DISPOSITION:captions=0
DISPOSITION:descriptions=0
DISPOSITION:metadata=0
DISPOSITION:dependent=0
DISPOSITION:still_image=0
DISPOSITION:multilayer=0
TAG:encoder=Lavc61.19.100 libvorbis
TAG:title=Second Stream
[/STREAM]
[FORMAT]
filename=
nb_streams=1
nb_programs=0
nb_stream_groups=0
format_name=ogg
start_time=-0.002902
duration=0.032902
size=7151
bit_rate=1738739
probe_score=100
[/FORMAT]
